<?xml version="1.0" encoding="UTF-8"?>
<svg id="Layer_2" data-name="Layer 2" xmlns="http://www.w3.org/2000/svg" viewBox="0 0 2347.72 373.71">
  <defs>
    <style>
      .cls-1 {
        fill: #1f1e21;
      }

      .cls-2 {
        fill: #8bd124;
      }

      .cls-3 {
        fill: #ededed;
      }
    </style>
  </defs>
  <g id="Layer_1-2" data-name="Layer 1">
    <g>
      <g>
        <polygon class="cls-1" points="1407.39 198.64 1341.44 131.89 1275.08 198.64 1213.25 198.64 1310.53 100.55 1213.64 3.25 1275.9 3.25 1341.44 69.2 1406.59 3.25 1468.82 3.25 1372.37 100.54 1469.63 198.64 1407.39 198.64"/>
        <path class="cls-3" d="M1464.02,5.25l-94.47,95.29,95.28,96.09h-56.6l-66.79-67.59-67.2,67.59h-56.19l95.29-96.09-94.89-95.29h56.61l66.38,66.79,65.98-66.79h56.6M1473.62,1.25h-67.87l-1.17,1.19-63.14,63.92-63.53-63.93-1.17-1.18h-67.9l6.79,6.82,92.09,92.48-92.49,93.27-6.76,6.82h67.45l1.17-1.18,64.35-64.73,63.95,64.72,1.17,1.19h67.87l-6.76-6.82-92.48-93.28,91.68-92.48,6.76-6.82h0Z"/>
      </g>
      <g>
        <rect class="cls-1" x="1507.31" y="3.25" width="47.17" height="195.39"/>
        <path class="cls-3" d="M1552.48,5.25v191.39h-43.17V5.25h43.17M1556.48,1.25h-51.17v199.39h51.17V1.25h0Z"/>
      </g>
      <g>
        <path class="cls-1" d="M1620.59,198.64v-123.74c0-22.6,5.21-40.15,15.5-52.16,11.08-12.93,28.05-19.49,50.44-19.49h66.75v41.47h-63.09c-9.46,0-20,9-20,15.1v138.81h-49.61Z"/>
        <path class="cls-3" d="M1751.28,5.25v37.47h-61.09c-10.59,0-22,9.76-22,17.1v136.81h-45.61v-121.74c0-42.75,18.74-69.64,63.94-69.64h64.75M1755.28,1.25h-68.75c-44.45,0-67.94,25.47-67.94,73.64v125.74h53.61V59.82c0-4.7,9.07-13.1,18-13.1h65.09V1.25h0Z"/>
      </g>
      <g>
        <path class="cls-1" d="M1846.36,198.64c-41.82,0-57.37-16.21-57.37-59.82V63.07c0-43.61,15.55-59.82,57.37-59.82h149.86c41.84,0,57.39,16.21,57.39,59.82v75.74c0,43.61-15.56,59.82-57.39,59.82h-149.86ZM1848,44.72c-9.08,0-11.85,3.15-11.85,13.46v85.51c0,10.34,2.77,13.49,11.85,13.49h145.79c9.81,0,12.65-3.03,12.65-13.49V58.19c0-10.44-2.84-13.46-12.65-13.46h-145.79Z"/>
        <path class="cls-3" d="M1996.22,5.25c43.17,0,55.39,17.92,55.39,57.82v75.74c0,39.9-12.22,57.82-55.39,57.82h-149.86c-43.15,0-55.37-17.92-55.37-57.82V63.07c0-39.9,12.22-57.82,55.37-57.82h149.86M1848,159.19h145.79c11.4,0,14.65-4.49,14.65-15.49V58.19c0-11-3.25-15.46-14.65-15.46h-145.79c-10.58,0-13.85,4.46-13.85,15.46v85.51c0,11,3.27,15.49,13.85,15.49M1996.22,1.25h-149.86c-22.66,0-37.55,4.86-46.85,15.28-8.66,9.7-12.52,24.05-12.52,46.54v75.74c0,22.48,3.86,36.84,12.52,46.54,9.31,10.43,24.19,15.28,46.85,15.28h149.86c22.67,0,37.56-4.86,46.87-15.28,8.66-9.7,12.52-24.05,12.52-46.54V63.07c0-22.48-3.86-36.84-12.52-46.54-9.31-10.43-24.2-15.28-46.87-15.28h0ZM1848,155.19c-7.39,0-9.85-1.66-9.85-11.49V58.19c0-9.81,2.46-11.46,9.85-11.46h145.79c8.66,0,10.65,2.14,10.65,11.46v85.51c0,9.34-1.99,11.49-10.65,11.49h-145.79Z"/>
      </g>
      <g>
        <path class="cls-1" d="M2114.89,156.77h170.19c9.9,0,17.95-8.23,17.95-18.35,0-9.54-7.72-16.74-17.95-16.74l-123.81-.42c-15.49,0-30.17-6.14-41.31-17.28-11.14-11.14-17.28-25.81-17.28-41.31s5.84-30.55,16.44-41.64c10.7-11.2,25.1-17.36,40.54-17.36h169.37v41.45h-167.33c-8.48,0-15.91,8.2-15.91,17.56,0,8.63,7.29,15.92,15.91,15.92h125.43c16.2,0,31.04,5.98,41.79,16.83,10.85,10.95,16.82,26.22,16.82,43,0,33.55-26.1,59.82-59.43,59.82l-171.41.4v-41.87Z"/>
        <path class="cls-3" d="M2327.02,5.67v37.45h-165.33c-9.78,0-17.91,9.37-17.91,19.56s8.13,17.92,17.91,17.92h125.43c32.17,0,56.61,24.02,56.61,57.82s-25.25,57.82-57.43,57.82l-169.41.4v-37.87h168.2c10.98,0,19.95-8.95,19.95-20.35s-8.97-18.74-19.95-18.74l-123.81-.42c-30.95,0-56.6-25.65-56.6-56.58s24.03-57,54.98-57h167.37M2331.02,1.67h-171.37c-15.99,0-30.9,6.39-41.99,17.98-10.96,11.46-16.99,26.74-16.99,43.02s6.34,31.2,17.87,42.72c11.52,11.52,26.7,17.86,42.73,17.86l123.79.42c9.11,0,15.97,6.34,15.97,14.74,0,9.02-7.16,16.35-15.95,16.35h-172.2v45.88h4.01s169.41-.41,169.41-.41c16.6,0,32.09-6.4,43.61-18.03,11.48-11.59,17.81-27.15,17.81-43.79s-6.18-33.07-17.4-44.4c-11.12-11.23-26.47-17.42-43.21-17.42h-125.43c-7.54,0-13.91-6.37-13.91-13.92,0-8.14,6.63-15.56,13.91-15.56h169.33V1.67h0Z"/>
      </g>
      <g>
        <path class="cls-1" d="M974.76,198.64c-41.82,0-57.37-16.21-57.37-59.82v-10.98c0-39.71,19.3-59.84,57.37-59.84h158.86v-13.05c0-6.95-1.41-10.22-14.29-10.22h-182.63V3.25h177.74c48.36,0,66.34,20.08,66.34,74.07l.06,61.44c0,43.61-15.56,59.83-57.4,59.83l-148.69.04ZM982.91,109.06c-14.01,0-18.38,1.97-18.38,14.28v19.53c0,12.33,4.36,14.31,18.38,14.31h136.42c12.11,0,14.29,0,14.29-16.74v-31.39h-150.71Z"/>
        <path class="cls-3" d="M1114.44,5.25c48.47,0,64.34,20.37,64.34,72.07l.06,61.45c0,39.9-12.22,57.82-55.4,57.82l-148.69.04c-43.15,0-55.37-17.92-55.37-57.82v-10.98c0-31.38,12.22-57.85,55.37-57.85h160.86v-15.05c0-8.55-2.85-12.22-16.29-12.22h-180.63V5.25h175.74M982.91,159.19h136.42c13.44,0,16.29-1.24,16.29-18.74v-33.39h-152.71c-14.67,0-20.38,2.43-20.38,16.28v19.53c0,13.85,5.7,16.31,20.38,16.31M1114.44,1.25h-179.74v45.47h184.63c5.47,0,9.04.67,10.63,1.98.82.68,1.66,1.96,1.66,6.24v11.05h-156.86c-21.26,0-37.07,6.28-46.99,18.65-8.22,10.25-12.38,24.78-12.38,43.19v10.98c0,22.48,3.86,36.84,12.52,46.54,9.31,10.43,24.19,15.28,46.85,15.28l148.69-.04c22.67,0,37.56-4.86,46.87-15.28,8.66-9.7,12.52-24.06,12.52-46.54l-.06-61.45c0-28.21-4.62-46.11-14.97-58.04-10.67-12.3-27.63-18.03-53.37-18.03h0ZM982.91,155.19c-7.21,0-11.2-.66-13.35-2.21-1.41-1.01-3.02-3.07-3.02-10.1v-19.53c0-7.02,1.61-9.08,3.02-10.09,2.15-1.54,6.14-2.2,13.36-2.2h148.71v29.39c0,5.16-.23,11.32-1.99,13.16-1.27,1.32-4.6,1.57-10.29,1.57h-136.42Z"/>
      </g>
      <g>
        <g>
          <polygon class="cls-1" points="933.69 344.56 933.69 245.6 949.9 245.6 949.9 329.17 978.65 329.17 976.81 344.56 933.69 344.56"/>
          <path class="cls-3" d="M947.9,247.6v83.57h28.5l-1.36,11.39h-39.35v-94.96h12.21M951.9,243.6h-20.21v102.96h46.9l.42-3.53,1.36-11.39.53-4.47h-29v-83.57h0Z"/>
        </g>
        <g>
          <path class="cls-1" d="M1028.55,345.93c-10.51,0-23.03-4.26-23.03-24.54,0-11.43,5.13-25.06,29.54-25.06h9.8v-5.88c0-8.04-3.35-8.84-11.57-8.84-5.94,0-15.79,2.58-19.09,3.58l-2.58.78v-14.42l1.33-.47c.43-.15,10.77-3.79,22.24-3.79,12.05,0,25.88,2.88,25.88,25.35v51.92h-14.15l-.94-5.82c-3.2,3.12-8.98,7.19-17.43,7.19ZM1038.07,307.93c-12.22.16-16.35,3.29-16.35,12.38,0,10.83,4.32,11.71,9.54,11.71,6.09,0,11.83-4.81,13.6-6.45v-17.74l-6.79.1Z"/>
          <path class="cls-3" d="M1035.19,269.3c13.03,0,23.88,3.53,23.88,23.35v49.92h-10.45l-1.36-8.4s-6.24,9.77-18.72,9.77c-8.83,0-21.03-3.13-21.03-22.54s15.33-23.06,27.54-23.06h11.8v-7.88c0-9.9-5.29-10.84-13.57-10.84-6.52,0-16.96,2.85-19.67,3.66v-10.32s10.31-3.67,21.57-3.67M1031.26,334.02c8.27,0,15.6-7.6,15.6-7.6v-20.62l-8.82.13c-11.13.15-18.32,2.59-18.32,14.38s5.43,13.71,11.54,13.71M1035.19,265.3c-11.81,0-22.46,3.74-22.91,3.9l-2.66.95v18.53l5.16-1.56c3.22-.97,12.82-3.49,18.51-3.49,3.12,0,6.22.13,7.77,1.1.49.31,1.8,1.12,1.8,5.74v3.88h-7.8c-8.58,0-15.27,1.55-20.45,4.75-7.36,4.54-11.09,12.05-11.09,22.31,0,17.11,8.89,26.54,25.03,26.54,7.03,0,12.36-2.62,16.03-5.37l.1.64.54,3.36h17.85v-53.92c0-24.51-15.91-27.35-27.88-27.35h0ZM1031.26,330.02c-4.04,0-7.54,0-7.54-9.71,0-7.91,3.22-10.24,14.37-10.38l4.77-.07v14.83c-2.42,2.09-7.12,5.33-11.6,5.33h0Z"/>
        </g>
        <g>
          <path class="cls-1" d="M1115.95,345.93c-7.84,0-16.17-2.84-16.52-2.96l-1.35-.46v-15.03l2.61.84c.1.03,9.94,3.16,15.26,3.16,8.51,0,11.98-2.49,11.98-8.58s-2.75-7.35-8.22-9.56l-7.36-2.97c-3.81-1.59-15.36-6.39-15.36-20.99,0-13.62,9.81-22.09,25.61-22.09,9.78,0,16.76,2.89,17.05,3.01l1.23.52v14.3l-2.64-.89c-.08-.03-8.2-2.75-15.23-2.75-9.24,0-10.49,3.65-10.49,7.22,0,5.68,3.36,6.97,6.91,8.33l.63.24,7.08,2.86c7.65,3,16.44,8.31,16.44,22.75,0,23.04-20.81,23.04-27.65,23.04Z"/>
          <path class="cls-3" d="M1122.6,269.3c9.49,0,16.28,2.85,16.28,2.85v10.19s-8.41-2.85-15.87-2.85c-6.78,0-12.49,1.9-12.49,9.22s5.03,8.96,8.82,10.44l7.06,2.85c7.59,2.98,15.19,7.73,15.19,20.9,0,17.77-13.02,21.04-25.65,21.04-7.6,0-15.87-2.85-15.87-2.85v-10.86s10.17,3.26,15.87,3.26c7.06,0,13.98-1.63,13.98-10.58,0-7.73-4.07-9.23-9.77-11.53l-7.05-2.85c-4.88-2.03-14.11-6.52-14.11-19.13s9.49-20.09,23.61-20.09M1122.6,265.3c-16.77,0-27.61,9.45-27.61,24.09,0,15.93,12.48,21.12,16.58,22.83l7.09,2.87.3.12c5.35,2.16,6.96,2.81,6.96,7.7,0,3.47-.76,6.58-9.98,6.58-4.15,0-11.98-2.21-14.65-3.07l-5.22-1.67v5.48s0,10.86,0,10.86v2.85l2.7.93c.36.13,9,3.07,17.17,3.07,19.67,0,29.65-8.42,29.65-25.04,0-15.65-9.48-21.38-17.73-24.62l-7.02-2.84-.69-.27c-3.8-1.46-5.63-2.34-5.63-6.47,0-2.08,0-5.22,8.49-5.22,6.69,0,14.51,2.61,14.59,2.64l5.28,1.78v-5.57s0-10.19,0-10.19v-2.66l-2.45-1.03c-.31-.13-7.64-3.16-17.83-3.16h0Z"/>
        </g>
        <g>
          <path class="cls-1" d="M1200.53,345.93c-12.64,0-18.28-6.18-18.28-20.05v-43.86h-12.22v-13.36h12.28l.52-15.58,15.63-7.28v22.86h16.6l-1.95,13.36h-14.65v44.27c0,5.32,1.3,5.32,4.79,5.32,4.12,0,11.53-2.33,11.61-2.35l2.6-.82v14.47l-1.35.46c-.31.1-7.6,2.56-15.57,2.56Z"/>
          <path class="cls-3" d="M1196.45,248.95v21.72h16.29l-1.37,9.36h-14.92v46.27c0,6.38,2.17,7.32,6.79,7.32s12.21-2.44,12.21-2.44v10.31s-7.19,2.45-14.93,2.45c-10.31,0-16.28-3.94-16.28-18.05v-45.86h-12.22v-9.36h12.22l.54-16.28,11.67-5.44M1200.45,242.67l-5.69,2.65-11.67,5.44-2.23,1.04-.08,2.45-.41,12.41h-12.35v17.36h12.22v41.86c0,15.05,6.44,22.05,20.28,22.05,8.3,0,15.9-2.56,16.22-2.66l2.71-.92v-18.63l-5.21,1.64c-1.99.63-7.85,2.26-11,2.26-1.63,0-2.22-.15-2.4-.22-.1-.2-.39-.97-.39-3.1v-42.27h14.38l.5-3.42,1.37-9.36.67-4.58h-16.91v-24h0Z"/>
        </g>
        <g>
          <path class="cls-1" d="M1247.95,344.56v-75.9h16.21v75.9h-16.21ZM1256.05,261.81c-5.51,0-10-4.55-10-10.14s4.48-10.14,10-10.14,10.01,4.55,10.01,10.14-4.49,10.14-10.01,10.14Z"/>
          <path class="cls-3" d="M1256.05,243.52c4.48,0,8.01,3.67,8.01,8.14s-3.53,8.14-8.01,8.14-8-3.65-8-8.14,3.52-8.14,8-8.14M1262.16,270.67v71.9h-12.21v-71.9h12.21M1256.05,239.52c-6.62,0-12,5.45-12,12.14s5.38,12.14,12,12.14,12.01-5.45,12.01-12.14-5.39-12.14-12.01-12.14h0ZM1266.16,266.67h-20.21v79.9h20.21v-79.9h0Z"/>
        </g>
        <g>
          <path class="cls-1" d="M1350.94,344.56v-54.36c0-7.37-3.6-7.9-9.53-7.9-7.54,0-15.2,4.61-17.67,6.23v56.03h-16.21v-75.9h12.58l2.25,7.32c3.98-3.13,12.43-8.69,22.18-8.69,15.02,0,22.63,7.89,22.63,23.44v53.82h-16.22Z"/>
          <path class="cls-3" d="M1344.53,269.3c11.94,0,20.63,4.9,20.63,21.44v51.82h-12.22v-52.36c0-9.64-6.1-9.9-11.53-9.9-9.9,0-19.67,7.18-19.67,7.18v55.08h-12.22v-71.9h9.1l2.71,8.82s10.58-10.19,23.2-10.19M1344.53,265.3c-8.69,0-16.38,4.14-21.09,7.41l-.99-3.22-.87-2.83h-16.06v79.9h20.22v-56.93c2.94-1.82,9.4-5.33,15.67-5.33s7.53.58,7.53,5.9v56.36h20.22v-55.82c0-8.94-2.41-15.63-7.16-19.9-4.15-3.73-9.86-5.54-17.47-5.54h0Z"/>
        </g>
        <g>
          <path class="cls-1" d="M1431.83,371.71c-18.09,0-28.05-7.5-28.05-21.13,0-5.2,2.78-11.06,6.86-14.85-2.75-2.46-4.14-5.85-4.14-10.11,0-5.32,3.5-9.54,7.27-13.11-5.19-4.81-7.53-10.79-7.53-19.06,0-16.86,9.67-26.15,27.23-26.15,2.86,0,4.84.36,6.76.7,1.9.34,3.69.67,6.4.67h21.26v13.21h-10.66c2.06,3.35,3.34,6.89,3.34,11.57,0,16.46-10.13,26.29-27.1,26.29-3.59,0-6.93-.52-10.15-1.58-1.73,1.9-2.77,3.37-2.77,4.61,0,2.23,0,2.76,6.23,3.02l16.7.82c11.34.56,22.93,3.38,22.93,20.03s-11.31,25.07-34.57,25.07ZM1421.4,339.96c-1.64,2.58-2.63,4.91-2.63,7.9,0,7.39,4.52,11.29,13.06,11.29,16.89,0,19.17-5.78,19.17-11.44,0-4.87-1.07-6.15-9.08-6.54l-18.42-1.09c-.64,0-1.33-.04-2.09-.13ZM1433.46,279.72c-8.23,0-11.44,3.85-11.44,13.73,0,5.19,1.49,13.89,11.44,13.89,7.59,0,11.44-4.67,11.44-13.89,0-6.27-1.98-13.73-11.44-13.73Z"/>
          <path class="cls-3" d="M1433.46,269.3c5.42,0,7.46,1.37,13.16,1.37h19.26v9.21h-12.48c2.99,3.94,5.16,7.74,5.16,13.57,0,16.01-9.76,24.29-25.1,24.29-3.94,0-7.47-.68-10.72-1.9-2.59,2.71-4.21,4.75-4.21,6.93,0,4.07,1.76,4.75,8.14,5.01l16.68.82c13.56.67,21.03,4.75,21.03,18.04,0,17.78-13.3,23.07-32.57,23.07-15.33,0-26.05-5.7-26.05-19.13,0-5.56,3.53-11.81,8.15-14.93-3.94-2.3-5.44-5.83-5.44-10.04,0-5.3,4.34-9.63,8.28-13.16-5.16-4.07-8.54-9.5-8.54-19,0-16.82,9.89-24.15,25.23-24.15M1433.46,309.33c9.36,0,13.44-6.39,13.44-15.89s-4.49-15.73-13.44-15.73c-9.77,0-13.44,5.29-13.44,15.73,0,9.5,4.47,15.89,13.44,15.89M1431.83,361.16c15.6,0,21.17-4.88,21.17-13.44,0-6.78-2.98-8.14-10.98-8.54l-18.46-1.1c-1.08,0-2.18-.13-3.13-.28-2.03,2.99-3.65,5.98-3.65,10.05,0,7.74,4.47,13.29,15.06,13.29M1433.46,265.3c-8.93,0-16.01,2.29-21.04,6.79-5.44,4.87-8.19,12.06-8.19,21.36,0,7.94,2.14,14.09,6.68,19.03-3.1,3.19-6.43,7.66-6.43,13.13,0,4.01,1.15,7.42,3.36,10.08-3.71,4.11-6.07,9.69-6.07,14.88,0,14.7,10.95,23.13,30.05,23.13,11.29,0,19.67-1.79,25.61-5.47,7.27-4.49,10.95-11.76,10.95-21.6,0-18.44-13.27-21.46-24.83-22.03l-16.68-.82c-2.53-.11-3.74-.27-4.32-.43-.01-.14-.02-.34-.02-.59,0-.41.48-1.19,1.43-2.32,3.03.86,6.22,1.29,9.5,1.29,18.22,0,29.1-10.58,29.1-28.29,0-3.74-.73-6.79-1.99-9.57h9.32v-17.21h-23.26c-2.53,0-4.24-.31-6.05-.64-1.91-.35-4.08-.74-7.11-.74h0ZM1433.46,305.33c-6.26,0-9.44-4-9.44-11.89,0-9.86,3.32-11.73,9.44-11.73,2.33,0,9.44,0,9.44,11.73s-6.85,11.89-9.44,11.89h0ZM1431.83,357.16c-9.91,0-11.06-5.3-11.06-9.29,0-2.15.61-3.9,1.7-5.81.33.02.65.03.96.03l18.35,1.09c7.22.36,7.22,1,7.22,4.55,0,3.3,0,9.44-17.17,9.44h0Z"/>
        </g>
        <g>
          <path class="cls-1" d="M1604.14,344.56l-5.02-21.17h-28.05l-5.03,21.17h-17.5l27.3-98.96h18.51l27.28,98.96h-17.51ZM1595.85,308.81l-7.81-31.99c-.96-4.01-2.03-8.59-2.92-12.46-.88,3.85-1.95,8.42-2.96,12.47l-7.81,31.98h21.5Z"/>
          <path class="cls-3" d="M1592.84,247.6l26.18,94.96h-13.3l-5.02-21.17h-31.21l-5.03,21.17h-13.29l26.19-94.96h15.47M1571.81,310.81h26.59l-8.41-34.46c-2.17-9.09-4.88-21.02-4.88-21.02,0,0-2.58,11.8-4.88,21.02l-8.42,34.46M1595.89,243.6h-21.56l-.81,2.94-26.19,94.96-1.4,5.06h21.7l.73-3.08,4.3-18.09h24.89l4.29,18.09.73,3.08h21.71l-1.4-5.06-26.18-94.96-.81-2.94h0ZM1576.9,306.81l7.21-29.51c.33-1.34.67-2.73,1.01-4.14.33,1.41.66,2.79.98,4.12l7.21,29.53h-16.41Z"/>
        </g>
        <g>
          <path class="cls-1" d="M1678.64,345.93c-10.63,0-28.47-5.11-28.47-39.32,0-36.49,23.87-39.32,31.18-39.32,5.03,0,9.73,1.48,13.61,4.25v-28.66h16.21v101.68h-12.88l-1.09-5.6c-3.46,3.05-9.64,6.97-18.56,6.97ZM1682.71,281.48c-7.6,0-16.32,2.86-16.32,25.13,0,25.27,9.36,25.27,14.96,25.27,4.21,0,8.9-1.94,13.61-5.61v-40.5c-2.27-1.62-6.83-4.28-12.25-4.28Z"/>
          <path class="cls-3" d="M1709.17,244.88v97.68h-9.23l-1.5-7.73c-2.43,2.98-8.95,9.1-19.79,9.1s-26.47-4.75-26.47-37.32,20.09-37.32,29.18-37.32,13.98,4.9,15.61,6.65v-31.07h12.21M1681.35,333.88c7.06,0,13.29-4.76,15.61-6.65v-42.47c-1.9-1.48-7.34-5.28-14.25-5.28-8.28,0-18.32,3.39-18.32,27.13,0,25.23,9.37,27.27,16.96,27.27M1713.17,240.88h-20.21v27.12c-3.51-1.77-7.46-2.71-11.61-2.71-7.78,0-33.18,2.98-33.18,41.32,0,35.95,19.09,41.32,30.47,41.32,7.6,0,13.3-2.57,17.23-5.34l.14.73.63,3.24h16.53v-105.68h0ZM1681.35,329.88c-5.16,0-12.96,0-12.96-23.27s9.67-23.13,14.32-23.13c4.29,0,8,1.88,10.25,3.34v38.45c-4.09,3.02-8.07,4.61-11.61,4.61h0Z"/>
        </g>
        <g>
          <path class="cls-1" d="M1767.46,344.56l-25.22-75.9h18.29l13.02,47.46c1.01,3.6,1.93,7.47,2.69,10.85.75-3.36,1.68-7.21,2.68-10.85l13.02-47.46h18.27l-25.36,75.9h-17.4Z"/>
          <path class="cls-3" d="M1807.44,270.67l-24.02,71.9h-14.51l-23.89-71.9h13.99l12.62,45.99c2.58,9.22,4.62,20.07,4.62,20.07,0,0,2.03-10.71,4.61-20.07l12.62-45.99h13.97M1812.99,266.67h-22.58l-.81,2.94-12.62,45.99c-.26.93-.51,1.88-.75,2.82-.25-.95-.5-1.9-.77-2.84l-12.61-45.97-.81-2.94h-22.58l1.75,5.26,23.89,71.9.91,2.74h20.28l.91-2.73,24.02-71.9,1.76-5.27h0Z"/>
        </g>
        <g>
          <path class="cls-1" d="M1856.86,345.93c-10.5,0-23.03-4.26-23.03-24.54,0-11.43,5.12-25.06,29.53-25.06h9.81v-5.88c0-8.04-3.35-8.84-11.58-8.84-5.91,0-15.78,2.58-19.09,3.58l-2.58.78v-14.42l1.33-.47c.43-.15,10.77-3.79,22.24-3.79,12.05,0,25.88,2.88,25.88,25.35v51.92h-14.15l-.93-5.82c-3.2,3.12-8.99,7.19-17.44,7.19ZM1866.37,307.93c-12.22.16-16.34,3.29-16.34,12.38,0,10.83,4.32,11.71,9.53,11.71,6.13,0,11.85-4.81,13.61-6.45v-17.75l-6.8.1Z"/>
          <path class="cls-3" d="M1863.5,269.3c13.03,0,23.88,3.53,23.88,23.35v49.92h-10.45l-1.35-8.4s-6.25,9.77-18.73,9.77c-8.83,0-21.03-3.13-21.03-22.54s15.33-23.06,27.53-23.06h11.81v-7.88c0-9.9-5.29-10.84-13.58-10.84-6.51,0-16.95,2.85-19.66,3.66v-10.32s10.32-3.67,21.57-3.67M1859.56,334.02c8.29,0,15.61-7.6,15.61-7.6v-20.62l-8.83.13c-11.11.15-18.31,2.59-18.31,14.38s5.43,13.71,11.53,13.71M1863.5,265.3c-11.8,0-22.46,3.74-22.91,3.9l-2.66.95v18.52l5.15-1.55c3.23-.97,12.84-3.49,18.51-3.49,3.12,0,6.23.13,7.78,1.1.49.31,1.8,1.12,1.8,5.74v3.88h-7.81c-8.58,0-15.26,1.55-20.44,4.75-7.36,4.54-11.09,12.05-11.09,22.31,0,17.11,8.89,26.54,25.03,26.54,7.03,0,12.36-2.62,16.03-5.37l.1.63.54,3.37h17.86v-53.92c0-24.51-15.91-27.35-27.88-27.35h0ZM1859.56,330.02c-4.04,0-7.53,0-7.53-9.71,0-7.91,3.22-10.24,14.37-10.38l4.78-.07v14.83c-2.42,2.09-7.12,5.33-11.61,5.33h0Z"/>
        </g>
        <g>
          <path class="cls-1" d="M1976.2,344.56v-54.36c0-7.37-3.6-7.9-9.53-7.9-7.56,0-15.2,4.61-17.66,6.23v56.03h-16.22v-75.9h12.58l2.25,7.32c3.98-3.13,12.43-8.69,22.18-8.69,15.02,0,22.63,7.89,22.63,23.44v53.82h-16.22Z"/>
          <path class="cls-3" d="M1969.79,269.3c11.94,0,20.63,4.9,20.63,21.44v51.82h-12.22v-52.36c0-9.64-6.1-9.9-11.53-9.9-9.9,0-19.66,7.18-19.66,7.18v55.08h-12.22v-71.9h9.1l2.71,8.82s10.58-10.19,23.2-10.19M1969.79,265.3c-8.69,0-16.38,4.14-21.09,7.41l-.99-3.22-.87-2.83h-16.06v79.9h20.22v-56.93c2.94-1.82,9.4-5.33,15.66-5.33s7.53.58,7.53,5.9v56.36h20.22v-55.82c0-8.94-2.41-15.63-7.16-19.9-4.15-3.73-9.86-5.54-17.47-5.54h0Z"/>
        </g>
        <g>
          <path class="cls-1" d="M2054.76,345.93c-12.64,0-18.28-6.18-18.28-20.05v-43.86h-12.21v-13.36h12.28l.52-15.58,15.63-7.28v22.86h16.59l-1.94,13.36h-14.66v44.27c0,5.32,1.3,5.32,4.78,5.32,4.12,0,11.54-2.33,11.62-2.35l2.6-.82v14.47s-1.36.46-1.36.46c-.31.1-7.61,2.56-15.58,2.56Z"/>
          <path class="cls-3" d="M2050.7,248.95v21.72h16.28l-1.36,9.36h-14.93v46.27c0,6.38,2.16,7.32,6.78,7.32s12.22-2.44,12.22-2.44v10.31s-7.21,2.45-14.94,2.45c-10.3,0-16.28-3.94-16.28-18.05v-45.86h-12.21v-9.36h12.21l.54-16.28,11.67-5.44M2054.7,242.67l-5.69,2.65-11.67,5.44-2.23,1.04-.08,2.46-.41,12.41h-12.34v17.36h12.21v41.86c0,15.05,6.44,22.05,20.28,22.05,8.3,0,15.91-2.55,16.22-2.66l2.71-.92v-18.64l-5.21,1.65c-1.99.63-7.85,2.26-11.02,2.26-1.62,0-2.21-.15-2.4-.22-.1-.21-.38-.97-.38-3.1v-42.27h14.39l.5-3.43,1.36-9.36.66-4.57h-16.9v-24h0Z"/>
        </g>
        <g>
          <path class="cls-1" d="M2119.11,345.93c-10.5,0-23.03-4.26-23.03-24.54,0-11.43,5.12-25.06,29.53-25.06h9.81v-5.88c0-8.04-3.35-8.84-11.58-8.84-5.89,0-15.78,2.58-19.09,3.58l-2.58.77v-14.42l1.33-.47c.43-.15,10.77-3.79,22.24-3.79,12.05,0,25.88,2.88,25.88,25.35v51.92h-14.15l-.93-5.82c-3.2,3.12-8.99,7.19-17.44,7.19ZM2128.64,307.93c-12.22.16-16.35,3.29-16.35,12.38,0,10.83,4.32,11.71,9.54,11.71,6.13,0,11.84-4.81,13.61-6.45v-17.75l-6.8.1Z"/>
          <path class="cls-3" d="M2125.76,269.3c13.03,0,23.88,3.53,23.88,23.35v49.92h-10.45l-1.35-8.4s-6.25,9.77-18.73,9.77c-8.83,0-21.03-3.13-21.03-22.54s15.33-23.06,27.53-23.06h11.81v-7.88c0-9.9-5.29-10.84-13.58-10.84-6.51,0-16.94,2.85-19.66,3.66v-10.32s10.32-3.67,21.57-3.67M2121.83,334.02c8.28,0,15.61-7.6,15.61-7.6v-20.62l-8.83.13c-11.11.15-18.32,2.59-18.32,14.38s5.44,13.71,11.54,13.71M2125.76,265.3c-11.8,0-22.46,3.74-22.91,3.9l-2.66.95v18.52l5.15-1.55c3.23-.97,12.86-3.5,18.51-3.5,3.12,0,6.23.13,7.78,1.1.49.31,1.8,1.12,1.8,5.74v3.88h-7.81c-8.58,0-15.26,1.55-20.44,4.75-7.36,4.54-11.09,12.05-11.09,22.31,0,17.11,8.89,26.54,25.03,26.54,7.03,0,12.36-2.62,16.03-5.37l.1.63.54,3.37h17.86v-53.92c0-24.51-15.91-27.35-27.88-27.35h0ZM2121.83,330.02c-4.04,0-7.54,0-7.54-9.71,0-7.91,3.22-10.24,14.37-10.38l4.77-.07v14.83c-2.42,2.09-7.12,5.33-11.61,5.33h0Z"/>
        </g>
        <g>
          <path class="cls-1" d="M2216.32,371.71c-18.09,0-28.05-7.5-28.05-21.13,0-5.2,2.78-11.06,6.85-14.85-2.75-2.46-4.15-5.85-4.15-10.11,0-5.32,3.51-9.54,7.28-13.11-5.19-4.82-7.54-10.79-7.54-19.06,0-16.86,9.67-26.15,27.23-26.15,2.86,0,4.85.36,6.77.71,1.9.34,3.69.67,6.39.67h21.27v13.21h-10.67c2.06,3.35,3.33,6.89,3.33,11.57,0,16.46-10.13,26.29-27.1,26.29-3.58,0-6.92-.52-10.15-1.58-1.73,1.89-2.76,3.36-2.76,4.61,0,2.23,0,2.76,6.21,3.02l16.71.82c11.34.56,22.93,3.38,22.93,20.03s-11.3,25.07-34.56,25.07ZM2205.9,339.96c-1.65,2.57-2.64,4.91-2.64,7.9,0,7.39,4.51,11.29,13.06,11.29,16.88,0,19.16-5.78,19.16-11.44,0-4.87-1.07-6.15-9.08-6.54l-18.41-1.09c-.64,0-1.33-.04-2.08-.13ZM2217.94,279.72c-8.23,0-11.44,3.85-11.44,13.73,0,5.19,1.49,13.89,11.44,13.89,7.59,0,11.44-4.67,11.44-13.89,0-6.27-1.98-13.73-11.44-13.73Z"/>
          <path class="cls-3" d="M2217.94,269.3c5.43,0,7.47,1.37,13.16,1.37h19.27v9.21h-12.48c2.98,3.94,5.14,7.74,5.14,13.57,0,16.01-9.76,24.29-25.1,24.29-3.94,0-7.46-.68-10.72-1.9-2.59,2.71-4.2,4.75-4.2,6.93,0,4.07,1.76,4.75,8.13,5.01l16.69.82c13.57.67,21.03,4.75,21.03,18.04,0,17.78-13.29,23.07-32.56,23.07-15.33,0-26.05-5.7-26.05-19.13,0-5.56,3.52-11.81,8.14-14.93-3.93-2.3-5.44-5.83-5.44-10.04,0-5.3,4.35-9.63,8.29-13.16-5.16-4.07-8.55-9.5-8.55-19,0-16.82,9.89-24.15,25.23-24.15M2217.94,309.33c9.37,0,13.44-6.39,13.44-15.89s-4.48-15.73-13.44-15.73c-9.77,0-13.44,5.29-13.44,15.73,0,9.5,4.48,15.89,13.44,15.89M2216.32,361.16c15.6,0,21.16-4.88,21.16-13.44,0-6.78-2.98-8.14-10.98-8.54l-18.45-1.1c-1.08,0-2.18-.13-3.12-.28-2.04,2.99-3.67,5.98-3.67,10.05,0,7.74,4.47,13.29,15.06,13.29M2217.94,265.3c-8.93,0-16.01,2.29-21.04,6.79-5.44,4.87-8.19,12.06-8.19,21.36,0,7.94,2.15,14.09,6.69,19.03-3.11,3.19-6.43,7.66-6.43,13.13,0,4,1.15,7.41,3.36,10.08-3.7,4.11-6.06,9.69-6.06,14.88,0,14.7,10.95,23.13,30.05,23.13,11.29,0,19.66-1.79,25.61-5.47,7.27-4.49,10.95-11.76,10.95-21.6,0-18.44-13.27-21.46-24.83-22.03l-16.7-.82c-2.52-.1-3.73-.27-4.3-.43-.01-.14-.02-.34-.02-.59,0-.42.47-1.2,1.42-2.32,3.04.87,6.17,1.29,9.5,1.29,18.22,0,29.1-10.58,29.1-28.29,0-3.73-.73-6.79-1.99-9.57h9.33v-17.21h-23.27c-2.53,0-4.23-.31-6.04-.63-1.91-.35-4.08-.74-7.13-.74h0ZM2217.94,305.33c-6.26,0-9.44-4-9.44-11.89,0-9.86,3.32-11.73,9.44-11.73,2.33,0,9.44,0,9.44,11.73s-6.85,11.89-9.44,11.89h0ZM2216.32,357.16c-9.91,0-11.06-5.3-11.06-9.29,0-2.16.61-3.91,1.7-5.81.33.02.64.03.95.03l18.34,1.09c7.22.36,7.22,1,7.22,4.55,0,3.3,0,9.44-17.16,9.44h0Z"/>
        </g>
        <g>
          <path class="cls-1" d="M2312.69,345.93c-16.08,0-32.52-4.67-32.52-39.32,0-26.09,9.81-39.32,29.15-39.32,8.31,0,14.59,2.32,19.21,7.1,6.19,6.4,9.07,17.27,8.56,32.29l-.22,5.73h-40.55c1.02,18.79,9.58,18.79,15.88,18.79h.49c6.55,0,17.9-3.4,18.01-3.44l2.58-.78v14.94l-1.32.48c-.4.14-9.8,3.53-19.27,3.53ZM2320.99,300c-.44-19.46-7.44-19.46-11.67-19.46-6.01,0-11.93,1.55-12.86,19.46h24.53Z"/>
          <path class="cls-3" d="M2309.31,269.3c12.61,0,26.85,5.57,25.78,37.32l-.15,3.8h-40.7c.54,22.52,11.02,22.79,17.96,22.79.17,0,.33,0,.49,0,6.93,0,18.59-3.52,18.59-3.52v10.85s-9.36,3.4-18.59,3.4c-14.11,0-30.52-2.85-30.52-37.32,0-30.26,13.44-37.32,27.15-37.32M2294.37,302h28.64c0-20.35-6.39-23.46-13.7-23.46-8.83,0-14.39,4.34-14.94,23.46M2309.31,265.3c-14.21,0-31.15,7.17-31.15,41.32,0,16.75,3.72,28.07,11.37,34.62,6.89,5.9,15.57,6.69,23.15,6.69,9.83,0,19.55-3.5,19.96-3.65l2.63-.96v-19.04l-5.16,1.56c-3.09.93-12.25,3.35-17.44,3.35h-.24s-.25,0-.25,0c-5.84,0-12.39,0-13.73-14.79h40.33l.15-3.85.15-3.8c.54-15.82-2.45-26.86-9.12-33.76-5.02-5.19-11.77-7.71-20.65-7.71h0ZM2298.58,298c1.22-15.47,6.46-15.46,10.73-15.46,3.58,0,8.85,0,9.6,15.46h-20.33Z"/>
        </g>
      </g>
    </g>
    <g>
      <polygon class="cls-2" points="685.25 344.21 574.47 233.43 463.69 344.21 343.04 344.21 514.14 173.11 405.36 64.32 125.48 344.21 4.83 344.21 347.04 2 463.69 2 574.47 112.78 685.25 2 805.9 2 634.79 173.11 805.9 344.21 685.25 344.21"/>
      <path class="cls-3" d="M801.07,4l-169.1,169.1,169.1,169.11h-114.99l-111.61-111.61-111.61,111.61h-114.99l169.11-169.11-111.61-111.61L124.65,342.21H9.66L347.87,4h114.99l111.61,111.61L686.08,4h114.99M810.73,0h-126.31l-1.17,1.17-108.78,108.78L465.69,1.17l-1.17-1.17h-118.31l-1.17,1.17L6.83,339.38l-6.83,6.83h126.31l1.17-1.17L405.36,67.15l105.95,105.95-166.28,166.28-6.83,6.83h126.31l1.17-1.17,108.78-108.78,108.78,108.78,1.17,1.17h126.31l-6.83-6.83-166.28-166.28L803.9,6.83l6.83-6.83h0Z"/>
    </g>
  </g>
</svg>